<svg xmlns="http://www.w3.org/2000/svg" version="1.1" xmlns:xlink="http://www.w3.org/1999/xlink" xmlns:svgjs="http://svgjs.dev/svgjs" width="1000" height="623" viewBox="0 0 1000 623"><g transform="matrix(1,0,0,1,-0.6060606060606233,0.2522267206477409)"><svg viewBox="0 0 396 247" data-background-color="#ffffff" preserveAspectRatio="xMidYMid meet" height="623" width="1000" xmlns="http://www.w3.org/2000/svg" xmlns:xlink="http://www.w3.org/1999/xlink"><g id="tight-bounds" transform="matrix(1,0,0,1,0.2400000000000091,-0.09999999999999432)"><svg viewBox="0 0 395.52 247.2" height="247.2" width="395.52"><g><svg viewBox="0 0 395.52 247.2" height="247.2" width="395.52"><g transform="matrix(1,0,0,1,12.00786324786327,1.4210854715202004e-14)"><svg viewBox="0 0 371.50427350427344 247.19999999999996" height="247.19999999999996" width="371.50427350427344"><g><svg viewBox="0 0 371.50427350427344 247.19999999999996" height="247.19999999999996" width="371.50427350427344"><g><svg viewBox="0 0 371.50427350427344 247.19999999999996" height="247.19999999999996" width="371.50427350427344"><g><svg viewBox="0 0 371.50427350427344 247.19999999999996" height="247.19999999999996" width="371.50427350427344"><g id="textblocktransform"><svg viewBox="0 0 371.50427350427344 247.19999999999996" height="247.19999999999996" width="371.50427350427344" id="textblock"><g><svg viewBox="0 0 371.50427350427344 247.19999999999996" height="247.19999999999996" width="371.50427350427344"><g transform="matrix(1,0,0,1,0,0)"><svg width="371.50427350427344" viewBox="0.9 -35.05 52.75 35.099999999999994" height="247.19999999999996" data-palette-color="#336a86"><path d="M5.85 0L5.85-1.5 24.25-1.5 13.65-30.65 2.5 0 0.9 0 13.65-35.05 26.4 0 5.85 0ZM33.15-33.5L33.15-35 53.65-35 40.9 0.05 28.15-35 29.75-35 40.9-4.35 51.5-33.5 33.15-33.5Z" opacity="1" transform="matrix(1,0,0,1,0,0)" fill="#336a86" class="undefined-text-0" data-fill-palette-color="primary" id="text-0"></path></svg></g></svg></g></svg></g></svg></g></svg></g></svg></g></svg></g></svg></g><defs></defs></svg><rect width="395.52" height="247.2" fill="none" stroke="none" visibility="hidden"></rect></g></svg></g></svg>